<svg xmlns="http://www.w3.org/2000/svg" xmlns:xlink="http://www.w3.org/1999/xlink" width="5000" zoomAndPan="magnify" viewBox="0 0 3750 862.499974" height="1150" preserveAspectRatio="xMidYMid meet" version="1.0"><defs><g/><clipPath id="d36dbed86a"><path d="M 138.554688 118.515625 L 480.199219 118.515625 L 480.199219 768.632812 L 138.554688 768.632812 Z M 138.554688 118.515625 " clip-rule="nonzero"/></clipPath><clipPath id="6b7d22d214"><path d="M 96 83.804688 L 523 83.804688 L 523 740 L 96 740 Z M 96 83.804688 " clip-rule="nonzero"/></clipPath></defs><g clip-path="url(#d36dbed86a)"><path fill="#ffde59" d="M 138.558594 118.515625 L 480.195312 118.515625 L 480.195312 768.632812 L 138.558594 768.632812 L 138.558594 118.515625 " fill-opacity="1" fill-rule="nonzero"/></g><path fill="#4f8f2d" d="M 575.097656 753.714844 C 575.097656 730.234375 556.0625 711.179688 532.546875 711.179688 C 444.300781 711.179688 175.105469 711.179688 86.828125 711.179688 C 63.339844 711.179688 44.277344 730.234375 44.277344 753.714844 C 44.277344 778.472656 44.277344 810.433594 44.277344 810.433594 C 44.277344 818.289062 50.632812 824.613281 58.460938 824.613281 L 560.914062 824.613281 C 568.773438 824.613281 575.097656 818.289062 575.097656 810.433594 Z M 575.097656 753.714844 " fill-opacity="1" fill-rule="evenodd"/><g clip-path="url(#6b7d22d214)"><path fill="#4f8f2d" d="M 96.953125 725.359375 C 96.953125 733.214844 103.308594 739.535156 111.136719 739.535156 L 508.265625 739.535156 C 516.09375 739.535156 522.449219 733.214844 522.449219 725.359375 L 522.449219 127.589844 C 522.449219 102.691406 503.105469 82.984375 479.898438 82.984375 C 406.800781 82.984375 212.605469 82.984375 139.503906 82.984375 C 116.273438 82.984375 96.953125 102.691406 96.953125 127.589844 C 96.953125 127.589844 96.953125 725.359375 96.953125 725.359375 Z M 279.777344 559.121094 L 244.234375 559.121094 C 239.664062 559.121094 235.554688 556.371094 233.792969 552.144531 C 232.0625 547.917969 233.027344 543.070312 236.289062 539.867188 L 379.851562 397.167969 C 383.765625 393.28125 389.949219 392.800781 394.433594 396.058594 C 398.886719 399.292969 400.359375 405.304688 397.863281 410.238281 L 352.25 500.902344 L 387.792969 500.902344 C 392.332031 500.902344 396.417969 503.625 398.203125 507.792969 C 399.964844 511.988281 399.054688 516.808594 395.878906 520.042969 L 342.039062 575.257812 L 252.089844 662.941406 C 248.148438 666.769531 242.019531 667.222656 237.566406 663.960938 C 233.113281 660.699219 231.695312 654.71875 234.164062 649.8125 Z M 461.546875 151.953125 C 461.546875 144.125 455.191406 137.773438 447.363281 137.773438 L 172.039062 137.773438 C 164.210938 137.773438 157.859375 144.125 157.859375 151.953125 L 157.859375 308.207031 C 157.859375 316.03125 164.210938 322.386719 172.039062 322.386719 L 447.363281 322.386719 C 455.191406 322.386719 461.546875 316.03125 461.546875 308.207031 Z M 461.546875 151.953125 " fill-opacity="1" fill-rule="evenodd"/></g><path fill="#4f8f2d" d="M 507.925781 654.460938 L 507.953125 654.460938 C 532.859375 654.460938 556.714844 644.59375 574.332031 627.011719 C 591.917969 609.398438 601.789062 585.550781 601.789062 560.652344 L 601.789062 243.71875 C 601.789062 204.328125 633.757812 172.371094 673.160156 172.371094 C 673.214844 172.371094 673.246094 172.371094 673.273438 172.371094 C 712.703125 172.371094 744.644531 204.328125 744.644531 243.71875 C 744.644531 270.0625 744.644531 292.269531 744.644531 292.269531 C 744.644531 300.066406 750.996094 306.449219 758.824219 306.449219 C 766.65625 306.449219 773.007812 300.066406 773.007812 292.269531 C 773.007812 292.269531 773.007812 270.0625 773.007812 243.71875 C 773.007812 188.675781 728.359375 144.011719 673.273438 144.011719 C 673.246094 144.011719 673.214844 144.011719 673.160156 144.011719 C 618.101562 144.011719 573.421875 188.675781 573.421875 243.71875 L 573.421875 560.652344 C 573.421875 578.035156 566.53125 594.683594 554.246094 606.933594 C 541.992188 619.210938 525.34375 626.101562 507.953125 626.101562 L 507.925781 626.101562 Z M 507.925781 654.460938 " fill-opacity="1" fill-rule="evenodd"/><path fill="#4f8f2d" d="M 678.691406 436.753906 C 678.691406 444.582031 685.046875 450.933594 692.875 450.933594 L 824.804688 450.933594 C 832.636719 450.933594 838.988281 444.582031 838.988281 436.753906 L 838.988281 362.457031 C 838.988281 341.242188 830.535156 320.855469 815.53125 305.851562 C 800.496094 290.820312 780.128906 282.371094 758.882812 282.371094 C 758.855469 282.371094 758.824219 282.371094 758.796875 282.371094 C 737.550781 282.371094 717.183594 290.820312 702.148438 305.851562 C 687.117188 320.855469 678.691406 341.242188 678.691406 362.457031 C 678.691406 398.867188 678.691406 436.753906 678.691406 436.753906 Z M 678.691406 436.753906 " fill-opacity="1" fill-rule="evenodd"/><path fill="#4f8f2d" d="M 674.75 450.933594 L 842.902344 450.933594 C 850.734375 450.933594 857.085938 444.582031 857.085938 436.753906 C 857.085938 428.925781 850.734375 422.574219 842.902344 422.574219 L 674.75 422.574219 C 666.917969 422.574219 660.566406 428.925781 660.566406 436.753906 C 660.566406 444.582031 666.917969 450.933594 674.75 450.933594 Z M 674.75 450.933594 " fill-opacity="1" fill-rule="evenodd"/><path fill="#4f8f2d" d="M 788.523438 436.753906 L 788.523438 494.066406 C 788.523438 501.894531 794.878906 508.246094 802.707031 508.246094 C 810.539062 508.246094 816.890625 501.894531 816.890625 494.066406 L 816.890625 436.753906 C 816.890625 428.925781 810.539062 422.574219 802.707031 422.574219 C 794.878906 422.574219 788.523438 428.925781 788.523438 436.753906 Z M 788.523438 436.753906 " fill-opacity="1" fill-rule="evenodd"/><path fill="#4f8f2d" d="M 694.859375 436.753906 L 694.859375 494.066406 C 694.859375 501.894531 701.214844 508.246094 709.042969 508.246094 C 716.871094 508.246094 723.226562 501.894531 723.226562 494.066406 L 723.226562 436.753906 C 723.226562 428.925781 716.871094 422.574219 709.042969 422.574219 C 701.214844 422.574219 694.859375 428.925781 694.859375 436.753906 Z M 694.859375 436.753906 " fill-opacity="1" fill-rule="evenodd"/><g fill="#1a7d95" fill-opacity="1"><g transform="translate(917.640629, 364.959488)"><g><path d="M 143.125 -125.828125 C 159.742188 -130.234375 182.464844 -145.835938 182.464844 -177.039062 C 182.464844 -210.953125 150.585938 -240.460938 100.730469 -240.460938 C 50.195312 -240.460938 18.992188 -211.292969 18.992188 -161.4375 L 65.117188 -161.4375 C 65.796875 -190.605469 84.109375 -198.066406 101.40625 -198.066406 C 118.363281 -198.066406 134.984375 -189.585938 134.984375 -170.933594 C 134.984375 -159.402344 129.21875 -139.394531 94.625 -139.394531 L 83.09375 -139.394531 L 83.09375 -106.832031 L 94.625 -106.832031 C 130.914062 -106.832031 143.800781 -89.199219 143.800781 -71.902344 C 143.800781 -46.125 120.0625 -38.324219 102.425781 -38.324219 C 81.734375 -38.324219 59.691406 -49.175781 57.996094 -79.363281 L 11.871094 -79.363281 C 11.53125 -30.523438 45.109375 4.070312 102.085938 4.070312 C 160.757812 4.070312 193.316406 -26.453125 193.316406 -69.1875 C 193.316406 -109.546875 159.402344 -124.46875 143.125 -125.828125 Z M 143.125 -125.828125 "/></g></g></g><g fill="#1a7d95" fill-opacity="1"><g transform="translate(1124.478058, 364.959488)"><g><path d="M 181.785156 0 L 237.410156 0 L 145.835938 -237.410156 L 99.371094 -237.410156 L 7.460938 0 L 63.421875 0 L 78.683594 -44.429688 L 166.523438 -44.429688 Z M 91.570312 -82.414062 L 122.433594 -173.308594 L 153.636719 -82.414062 Z M 91.570312 -82.414062 "/></g></g></g><g fill="#1a7d95" fill-opacity="1"><g transform="translate(1369.292188, 364.959488)"><g><path d="M 112.9375 -237.410156 L 17.636719 -237.410156 L 17.636719 0 L 69.527344 0 L 69.527344 -72.578125 L 112.9375 -72.578125 C 176.019531 -72.578125 204.171875 -106.496094 204.171875 -154.992188 C 204.171875 -203.832031 176.019531 -237.410156 112.9375 -237.410156 Z M 112.261719 -117.347656 L 69.527344 -117.347656 L 69.527344 -192.640625 L 112.261719 -192.640625 C 136.679688 -192.640625 149.226562 -178.394531 149.226562 -154.992188 C 149.226562 -131.929688 136.679688 -117.347656 112.261719 -117.347656 Z M 112.261719 -117.347656 "/></g></g></g><g fill="#1a7d95" fill-opacity="1"><g transform="translate(1582.572032, 364.959488)"><g><path d="M 209.257812 -237.410156 L 106.832031 -237.410156 C 44.769531 -237.410156 18.3125 -206.207031 18.3125 -165.847656 C 18.3125 -136 34.253906 -120.0625 51.210938 -109.546875 C 25.097656 -97.335938 15.941406 -81.398438 15.941406 -57.316406 L 15.941406 -39.679688 C 15.941406 -20.011719 14.921875 -10.175781 9.15625 0 L 61.046875 0 C 66.472656 -10.175781 67.832031 -20.011719 67.832031 -39.679688 L 67.832031 -55.621094 C 67.832031 -74.273438 80.378906 -86.144531 100.730469 -86.144531 L 157.367188 -86.144531 L 157.367188 0 L 209.257812 0 Z M 157.367188 -126.84375 L 108.867188 -126.84375 C 81.398438 -126.84375 71.902344 -138.375 71.902344 -161.097656 C 71.902344 -182.464844 84.789062 -192.640625 107.851562 -192.640625 L 157.367188 -192.640625 Z M 157.367188 -126.84375 "/></g></g></g><g fill="#1a7d95" fill-opacity="1"><g transform="translate(1809.415052, 364.959488)"><g><path d="M 341.867188 0 L 241.816406 -119.722656 L 340.511719 -237.410156 L 281.5 -237.410156 L 200.441406 -142.105469 L 200.441406 -237.410156 L 148.550781 -237.410156 L 148.550781 -141.765625 L 67.152344 -237.410156 L 8.140625 -237.410156 L 106.832031 -119.722656 L 6.78125 0 L 65.796875 0 L 148.550781 -97.675781 L 148.550781 0 L 200.441406 0 L 200.441406 -97.335938 L 282.855469 0 Z M 341.867188 0 "/></g></g></g><g fill="#1a7d95" fill-opacity="1"><g transform="translate(2157.986865, 364.959488)"><g><path d="M 181.785156 0 L 237.410156 0 L 145.835938 -237.410156 L 99.371094 -237.410156 L 7.460938 0 L 63.421875 0 L 78.683594 -44.429688 L 166.523438 -44.429688 Z M 91.570312 -82.414062 L 122.433594 -173.308594 L 153.636719 -82.414062 Z M 91.570312 -82.414062 "/></g></g></g><g fill="#1a7d95" fill-opacity="1"><g transform="translate(2402.800995, 364.959488)"><g><path d="M 143.800781 -301.507812 C 141.765625 -287.265625 133.628906 -281.835938 117.6875 -281.835938 C 102.085938 -281.835938 93.945312 -287.265625 91.910156 -301.507812 L 59.691406 -301.507812 C 59.691406 -269.289062 79.023438 -249.277344 117.6875 -249.277344 C 156.351562 -249.277344 176.019531 -269.289062 176.019531 -301.507812 Z M 17.636719 -237.410156 L 17.636719 0 L 72.238281 0 L 165.167969 -151.261719 L 166.1875 -151.261719 L 166.1875 0 L 218.078125 0 L 218.078125 -237.410156 L 165.507812 -237.410156 L 70.542969 -83.09375 L 69.527344 -83.09375 L 69.527344 -237.410156 Z M 17.636719 -237.410156 "/></g></g></g><g fill="#1a7d95" fill-opacity="1"><g transform="translate(2638.460018, 364.959488)"><g><path d="M 13.566406 -112.261719 L 13.566406 -74.953125 L 118.027344 -74.953125 L 118.027344 -112.261719 Z M 13.566406 -112.261719 "/></g></g></g><g fill="#1a7d95" fill-opacity="1"><g transform="translate(2769.9319, 364.959488)"><g/></g></g><g fill="#1a7d95" fill-opacity="1"><g transform="translate(917.640629, 837.620271)"><g><path d="M 212.3125 -237.410156 L 17.636719 -237.410156 L 17.636719 0 L 69.527344 0 L 69.527344 -192.640625 L 160.421875 -192.640625 L 160.421875 0 L 212.3125 0 Z M 212.3125 -237.410156 "/></g></g></g><g fill="#1a7d95" fill-opacity="1"><g transform="translate(1147.535305, 837.620271)"><g><path d="M 181.785156 0 L 237.410156 0 L 145.835938 -237.410156 L 99.371094 -237.410156 L 7.460938 0 L 63.421875 0 L 78.683594 -44.429688 L 166.523438 -44.429688 Z M 91.570312 -82.414062 L 122.433594 -173.308594 L 153.636719 -82.414062 Z M 91.570312 -82.414062 "/></g></g></g><g fill="#1a7d95" fill-opacity="1"><g transform="translate(1392.349435, 837.620271)"><g><path d="M 112.9375 -237.410156 L 17.636719 -237.410156 L 17.636719 0 L 69.527344 0 L 69.527344 -72.578125 L 112.9375 -72.578125 C 176.019531 -72.578125 204.171875 -106.496094 204.171875 -154.992188 C 204.171875 -203.832031 176.019531 -237.410156 112.9375 -237.410156 Z M 112.261719 -117.347656 L 69.527344 -117.347656 L 69.527344 -192.640625 L 112.261719 -192.640625 C 136.679688 -192.640625 149.226562 -178.394531 149.226562 -154.992188 C 149.226562 -131.929688 136.679688 -117.347656 112.261719 -117.347656 Z M 112.261719 -117.347656 "/></g></g></g><g fill="#1a7d95" fill-opacity="1"><g transform="translate(1605.62928, 837.620271)"><g><path d="M 131.929688 -130.574219 L 223.164062 -237.410156 L 163.8125 -237.410156 L 69.527344 -127.183594 L 69.527344 -237.410156 L 17.636719 -237.410156 L 17.636719 0 L 69.527344 0 L 69.527344 -57.316406 L 102.765625 -96.320312 L 102.765625 -93.605469 L 175.003906 0 L 232.320312 0 Z M 131.929688 -130.574219 "/></g></g></g><g fill="#1a7d95" fill-opacity="1"><g transform="translate(1844.679063, 837.620271)"><g><path d="M 141.089844 -237.410156 L 102.425781 -133.289062 L 64.777344 -237.410156 L 7.460938 -237.410156 L 68.507812 -92.929688 C 74.953125 -77.667969 76.308594 -66.8125 72.917969 -57.996094 C 68.507812 -48.5 62.40625 -36.96875 30.523438 -40.359375 L 30.523438 5.425781 C 78.34375 10.175781 99.371094 -7.460938 122.773438 -61.726562 L 198.40625 -237.410156 Z M 141.089844 -237.410156 "/></g></g></g><g fill="#1a7d95" fill-opacity="1"><g transform="translate(2050.499184, 837.620271)"><g><path d="M 143.800781 -301.507812 C 141.765625 -287.265625 133.628906 -281.835938 117.6875 -281.835938 C 102.085938 -281.835938 93.945312 -287.265625 91.910156 -301.507812 L 59.691406 -301.507812 C 59.691406 -269.289062 79.023438 -249.277344 117.6875 -249.277344 C 156.351562 -249.277344 176.019531 -269.289062 176.019531 -301.507812 Z M 17.636719 -237.410156 L 17.636719 0 L 72.238281 0 L 165.167969 -151.261719 L 166.1875 -151.261719 L 166.1875 0 L 218.078125 0 L 218.078125 -237.410156 L 165.507812 -237.410156 L 70.542969 -83.09375 L 69.527344 -83.09375 L 69.527344 -237.410156 Z M 17.636719 -237.410156 "/></g></g></g><g fill="#1a7d95" fill-opacity="1"><g transform="translate(2286.158207, 837.620271)"><g><path d="M 16.957031 -56.300781 L 16.957031 0 L 70.542969 0 L 70.542969 -56.300781 Z M 16.957031 -56.300781 "/></g></g></g><g fill="#1a7d95" fill-opacity="1"><g transform="translate(2373.640293, 837.620271)"><g><path d="M 131.929688 -130.574219 L 223.164062 -237.410156 L 163.8125 -237.410156 L 69.527344 -127.183594 L 69.527344 -237.410156 L 17.636719 -237.410156 L 17.636719 0 L 69.527344 0 L 69.527344 -57.316406 L 102.765625 -96.320312 L 102.765625 -93.605469 L 175.003906 0 L 232.320312 0 Z M 131.929688 -130.574219 "/></g></g></g><g fill="#1a7d95" fill-opacity="1"><g transform="translate(2612.690077, 837.620271)"><g><path d="M 141.089844 -237.410156 L 102.425781 -133.289062 L 64.777344 -237.410156 L 7.460938 -237.410156 L 68.507812 -92.929688 C 74.953125 -77.667969 76.308594 -66.8125 72.917969 -57.996094 C 68.507812 -48.5 62.40625 -36.96875 30.523438 -40.359375 L 30.523438 5.425781 C 78.34375 10.175781 99.371094 -7.460938 122.773438 -61.726562 L 198.40625 -237.410156 Z M 141.089844 -237.410156 "/></g></g></g><g fill="#1a7d95" fill-opacity="1"><g transform="translate(2818.510198, 837.620271)"><g><path d="M 112.9375 -158.046875 L 69.527344 -158.046875 L 69.527344 -192.640625 L 170.59375 -192.640625 L 170.59375 -237.410156 L 17.636719 -237.410156 L 17.636719 0 L 112.9375 0 C 176.019531 0 204.171875 -31.542969 204.171875 -79.023438 C 204.171875 -126.84375 176.019531 -158.046875 112.9375 -158.046875 Z M 112.261719 -44.089844 L 69.527344 -44.089844 L 69.527344 -114.296875 L 112.261719 -114.296875 C 136.679688 -114.296875 149.226562 -101.40625 149.226562 -79.023438 C 149.226562 -56.976562 136.679688 -44.089844 112.261719 -44.089844 Z M 112.261719 -44.089844 "/></g></g></g><g fill="#1a7d95" fill-opacity="1"><g transform="translate(3036.876188, 837.620271)"><g><path d="M 181.785156 0 L 237.410156 0 L 145.835938 -237.410156 L 99.371094 -237.410156 L 7.460938 0 L 63.421875 0 L 78.683594 -44.429688 L 166.523438 -44.429688 Z M 91.570312 -82.414062 L 122.433594 -173.308594 L 153.636719 -82.414062 Z M 91.570312 -82.414062 "/></g></g></g><g fill="#1a7d95" fill-opacity="1"><g transform="translate(3281.690318, 837.620271)"><g><path d="M 160.421875 -237.410156 L 160.421875 -139.730469 L 69.527344 -139.730469 L 69.527344 -237.410156 L 17.636719 -237.410156 L 17.636719 0 L 69.527344 0 L 69.527344 -97.675781 L 160.421875 -97.675781 L 160.421875 0 L 212.3125 0 L 212.3125 -237.410156 Z M 160.421875 -237.410156 "/></g></g></g><g fill="#1a7d95" fill-opacity="1"><g transform="translate(3511.585118, 837.620271)"><g><path d="M 112.9375 -158.046875 L 69.527344 -158.046875 L 69.527344 -237.410156 L 17.636719 -237.410156 L 17.636719 0 L 112.9375 0 C 176.019531 0 204.171875 -31.542969 204.171875 -79.023438 C 204.171875 -126.84375 176.019531 -158.046875 112.9375 -158.046875 Z M 112.261719 -44.089844 L 69.527344 -44.089844 L 69.527344 -114.296875 L 112.261719 -114.296875 C 136.679688 -114.296875 149.226562 -101.40625 149.226562 -79.023438 C 149.226562 -56.976562 136.679688 -44.089844 112.261719 -44.089844 Z M 112.261719 -44.089844 "/></g></g></g></svg>